#N canvas 789 317 925 593 10;
#X obj 19 0 tgl 15 0 empty empty empty 17 7 0 10 -262144 -1 -1 0 1
;
#X msg 19 29 \; pd dsp \$1;
#X obj 111 154 osc~;
#X obj 114 232 *~;
#X obj 57 296 s~ VU;
#X obj 110 302 dac~ 1 2;
#X obj 339 59 - 100;
#X obj 339 32 env~;
#X obj 338 6 r~ VU;
#X obj 340 87 vu 15 120 empty empty -1 -8 0 10 -66577 -1 1 0;
#X obj 236 211 line~;
#X obj 236 176 \$1 50;
#X obj 236 130 knob 32 32 0 5 0 0 empty empty empty 0 -8 0 8 -262144
-1 -1 0 1;
#X obj 164 74 osc~;
#X obj 110 124 +~;
#X obj 164 102 *~;
#X floatatom 110 87 5 0 0 0 - - -;
#X floatatom 164 31 5 0 0 0 - - -;
#X floatatom 209 69 5 0 0 0 - - -;
#X text 106 64 Carrier;
#X text 158 4 modulator Freq;
#X text 209 47 Mod Index;
#X connect 0 0 1 0;
#X connect 2 0 3 0;
#X connect 3 0 4 0;
#X connect 3 0 5 0;
#X connect 3 0 5 1;
#X connect 6 0 9 0;
#X connect 7 0 6 0;
#X connect 8 0 7 0;
#X connect 10 0 3 1;
#X connect 11 0 10 0;
#X connect 12 0 11 0;
#X connect 13 0 15 0;
#X connect 14 0 2 0;
#X connect 15 0 14 1;
#X connect 16 0 14 0;
#X connect 17 0 13 0;
#X connect 18 0 15 1;
